<svg id="Layer_1" data-name="Layer 1" xmlns="http://www.w3.org/2000/svg" viewBox="0 0 809.37 262.34"><defs><style>.cls-1{fill:#fff;}.cls-2{fill:#8bb44a;}.cls-3{fill:#2d9f6c;}.cls-4{fill:#16a4b8;}.cls-5{fill:#05abdb;}.cls-6{fill:#0a618e;}.cls-7{fill:#04acdb;}</style></defs><title>Logo_Full</title><path class="cls-1" d="M784.06,242.58h15.3c.08,1.67.22,3.11.22,4.55q0,22.25,0,44.49c0,6.89,2.47,12.75,9,15.46,7,2.92,14.37,2.92,21-1.74A14.67,14.67,0,0,0,836,293c.1-14.66.09-29.33.13-44V242.5h15.64c.13,1.29.33,2.41.33,3.53,0,14.5-.43,29,0,43.49.52,18.67-12.66,31.75-31.52,33.06-9,.63-17.64-.89-25.08-6.51A27.92,27.92,0,0,1,784,293.71c-.42-16.32-.29-32.65-.37-49A13.48,13.48,0,0,1,784.06,242.58Z" transform="translate(-401.67 -140.65)"/><path class="cls-1" d="M1122.29,242.58h14.87c.29.51.58.79.58,1.07.07,16.83.41,33.65,0,50.47-.26,12.76-7.72,22.19-20.29,26.14-13.61,4.29-26.62,3.49-38.06-6.27a26.27,26.27,0,0,1-9.36-19.75c-.56-16.64-.53-33.31-.71-50a6.51,6.51,0,0,1,.57-1.66h14.87c0,2,0,3.8,0,5.57,0,14,.1,28,.09,42,0,7.27,2.59,13.33,9.28,16.42,7.28,3.36,14.93,3.53,21.9-1.22,5-3.42,6.44-8.7,6.42-14.45,0-14.33-.14-28.66-.22-43C1122.28,246.29,1122.29,244.64,1122.29,242.58Z" transform="translate(-401.67 -140.65)"/><path class="cls-1" d="M1207.45,245.67c-1.37,3.77-2.76,7.62-4.2,11.58-4.45-1.39-8.45-3-12.59-3.84-5.08-1.09-10.28-1.32-15.16,1.15-6.14,3.11-6.76,9.56-1.16,13.55a32.37,32.37,0,0,0,7.12,3.53c5.27,2,10.75,3.59,15.91,5.87,8.43,3.72,13.54,10,13.67,19.65.13,9.83-4.25,16.92-12.9,21.38-12,6.18-31.47,4-41.67-4.69a30.87,30.87,0,0,1-2.64-3c1.76-3.47,3.54-7,5.56-10.95l5.49,3.36a35.17,35.17,0,0,0,20.42,5.51c5.53-.28,9.42-3.12,10.44-7.62,1.07-4.72-.89-8.6-6.27-11.16-4-1.93-8.36-3.27-12.55-4.88-2.64-1-5.31-2-7.9-3.09-7.41-3.22-12.25-8.53-13.12-16.81-1-9,2.79-15.71,10-20.9,10.83-7.74,30.83-5.74,39.67-.34A15.71,15.71,0,0,1,1207.45,245.67Z" transform="translate(-401.67 -140.65)"/><path class="cls-1" d="M918.39,242,913,255.12c-1.8-.28-3.4-.58-5-.76-6.9-.8-12.34,1.52-16.19,7.47-3.38,5.22-4.61,11-4.67,17.07-.1,12-.25,24-.37,35.93,0,1.79,0,3.59,0,5.92H871.33V242.46h15.74c-.2,3.77-.37,7.15-.55,10.52,5.29-6,9.82-12.54,18.42-13.5C909.42,239,913.85,239.21,918.39,242Z" transform="translate(-401.67 -140.65)"/><path class="cls-1" d="M929.71,242.5h15.08v78H929.71Z" transform="translate(-401.67 -140.65)"/><path class="cls-1" d="M836.49,362.66l-4.47-.25c-4.76,11.2-9.36,22-14.19,33.35h5.49l3.15-7.93h15.95l3,7.81h5.28C845.8,384.33,841.17,373.56,836.49,362.66Zm-8.24,20.2,6-14.28c2.26,5.15,4.12,9.37,6.28,14.28Z" transform="translate(-401.67 -140.65)"/><path class="cls-1" d="M729.55,362.44l4.61.32c0,7.06-.13,13.84,0,20.62.13,5.38,2.75,7.89,8,8.21,5.81.36,8.78-2.06,9.13-7.95.25-4.3,0-8.63-.09-12.94,0-2.47,0-4.94,0-7.7l4.08-.57A5.44,5.44,0,0,1,756,364c.09,6.81.34,13.62.13,20.43-.23,7.19-5.61,11.88-13.25,12.06-7,.16-12.87-4.61-13.21-11.49C729.28,377.75,729.55,370.44,729.55,362.44Z" transform="translate(-401.67 -140.65)"/><path class="cls-1" d="M911.66,372.94c-.33-5.17-3.58-9.45-8.74-10.05-4.84-.58-9.81-.13-14.75-.13V396l4.77-.3V385.31c4.13-.61,7.82-.71,11.22-1.77A10.57,10.57,0,0,0,911.66,372.94Zm-6.07,4.12c-3.1,4.31-7.68,3.51-12.65,3.06v-13.3c4.59-.14,9.14-1.64,12.59,2.38C907.58,371.58,907.32,374.65,905.59,377.06Z" transform="translate(-401.67 -140.65)"/><path class="cls-1" d="M802.63,391.44v4.06H776.71c5.63-9.95,13.11-18.31,19.16-28.67H778.58c-.26-1.55-.43-2.58-.67-4.07h26.33c-3.47,5.26-6.46,9.91-9.56,14.49s-6.2,8.94-9.85,14.19Z" transform="translate(-401.67 -140.65)"/><path class="cls-1" d="M871.31,362.86c-4.57-.52-9.24-.11-14.32-.11V396l4.73-.57V384.81c3.41-.33,6.55-.45,9.63-1,5.49-.93,9.07-5.09,9.14-10.27C880.56,368.08,877,363.5,871.31,362.86Zm0,16.67c-2.92.7-6,.65-9.48,1V366.81c2.9,0,5.65-.21,8.36.05,3.08.3,5.18,2,5.56,5.31S874.57,378.76,871.35,379.53Z" transform="translate(-401.67 -140.65)"/><path class="cls-2" d="M946.88,213.83c0,5-4.87,9.56-10.11,9.55a10.22,10.22,0,0,1-9.87-9.81c0-5.11,4.56-9.43,10.1-9.53C942.05,204,946.88,208.75,946.88,213.83Z" transform="translate(-401.67 -140.65)"/><path class="cls-1" d="M770.16,395.75h-4.3v-32.7l4.3-.71Z" transform="translate(-401.67 -140.65)"/><path class="cls-1" d="M746,319.05c-5,2.38-8.77,1.43-11.84-2.22a34.54,34.54,0,0,0,3.49-1.62c4.52-2.75,9.5-5,13.41-8.45,15.6-13.79,20.94-31.65,18.59-51.85C767.33,235,756.94,220,738.29,212.55c-35.78-14.38-72.26,8.12-76.07,44.17-3.15,29.72,15.1,55.88,44.4,61.79,1.4.28,2.77.7,4,1-1.73,7-3.33,13.58-4.94,20.12l1,.61a53.78,53.78,0,0,1,6.15-2.9c4.07-1.35,8.19-3.14,12.38-3.4s8.52,1.16,12.81,1.72c13.26,1.73,26.16-5.8,31.66-18.67l-13.06-5.08C752.86,314.5,749.68,317.29,746,319.05ZM726.64,291,713,294.21l1.87,8c-11.51,4.09-29.36-8.37-34.51-23.95-7.54-22.8,2.89-45.86,23.83-52.65,21.12-6.85,42.63,3.83,48.45,24.73,6.77,24.29-6.67,46.21-20.8,48.83Z" transform="translate(-401.67 -140.65)"/><path class="cls-1" d="M1032.21,241.51c-15-8.81-30.89-8.75-46.4-1.12-22.52,11.1-30.12,38-16.61,59,8.85,13.8,22.59,18.93,40.84,19.75,3.21-.7,9-1.24,14.16-3.21,16.29-6.15,26.51-17.71,28.09-35.44C1053.81,263.5,1046.84,250.1,1032.21,241.51Zm3.23,45.44a25.23,25.23,0,0,1-3.78,7.06c-5.3,7-14.16,11.16-24.5,11.12-18.75-.08-31.72-14.7-29.23-31.82a.53.53,0,0,0,0-.13c0-.14.06-.28.08-.42a30.56,30.56,0,0,1,.65-3c.18-.67.39-1.33.62-2,3.61-10.14,13.27-17,25.78-18.23,10.55-1,19.58,2.86,25.36,9.41C1036.69,266,1039.11,276.28,1035.44,287Z" transform="translate(-401.67 -140.65)"/><path class="cls-1" d="M720.53,388a20.42,20.42,0,0,0,2-10.46,19.81,19.81,0,0,0-4-9.41c-4.94-6.51-14.54-8.33-21.64-4.67a17.7,17.7,0,0,0-9.29,20.13c2.22,8.58,9.42,13.4,19.6,13.13,8.67,7.87,12,8.25,14.7,1.6L713,396.7C716.12,393.19,719.1,391,720.53,388Zm-14,1.42-.13-.06-1.25,1.36-.86.94h0c-5.08.42-9.82-3.14-11.63-7.5a9.78,9.78,0,0,1-.78-3.7c0-7.36,4.4-13.21,11.23-14.28a12.89,12.89,0,0,1,14.2,9.13,13.65,13.65,0,0,1-.8,10.51,11.74,11.74,0,0,1-6,5.15c-.53-.2-1.09-.42-1.67-.66Z" transform="translate(-401.67 -140.65)"/><path class="cls-3" d="M453.7,297l-34.61,26.76a122.87,122.87,0,0,1-12.69-96.83c.61-2.13,1.27-4.23,2-6.3,20.14-2,32.33,9.67,39.57,20.91A81.61,81.61,0,0,0,453.7,297Z" transform="translate(-401.67 -140.65)"/><path class="cls-2" d="M525.71,140.85c-16.65,6.64-38,21-40.13,51.32A77.6,77.6,0,0,0,449,237.71c-.39,1.27-.74,2.54-1.07,3.84-7.24-11.24-19.43-22.93-39.57-20.91,16.14-46.61,59.6-80,110.69-80C521.31,140.65,523.52,140.71,525.71,140.85Z" transform="translate(-401.67 -140.65)"/><path class="cls-3" d="M608.13,182.48c-12.55,7.62-34.17,11.68-51.91,10.3h0a72.09,72.09,0,0,0-70.63-.61c2.16-30.3,23.48-44.68,40.13-51.32A116.18,116.18,0,0,1,608.13,182.48Z" transform="translate(-401.67 -140.65)"/><path class="cls-4" d="M621.37,201.73c-7.54,14.18-21.73,28.35-27.59,44.47a80.37,80.37,0,0,0-2.23-8.93,77.64,77.64,0,0,0-35.33-44.49c17.74,1.38,39.36-2.68,51.91-10.3A120.78,120.78,0,0,1,621.37,201.73Z" transform="translate(-401.67 -140.65)"/><path class="cls-5" d="M636.51,260.78a123.69,123.69,0,0,1-1.6,19.86,120.67,120.67,0,0,1-16.4,44.08l-30.29-30.29a80.75,80.75,0,0,0,7-33,82,82,0,0,0-1.42-15.23c5.86-16.12,20.05-30.29,27.59-44.47A121.74,121.74,0,0,1,636.51,260.78Z" transform="translate(-401.67 -140.65)"/><path class="cls-6" d="M468.93,369.43a122.38,122.38,0,0,0,19.27,7.35h0a117.75,117.75,0,0,0,30.87,4.13,7.37,7.37,0,0,0,1.69-.13h0a112.13,112.13,0,0,0,43.19-9l-33-33a72.07,72.07,0,0,1-10.65.79,73.24,73.24,0,0,1-55.25-25.45L430.5,339.64s-27.35,16.76-11.41,38.3c21.74,18.26,36.19.69,38.38-3.87,3-6.34,11.45-4.64,11.45-4.64" transform="translate(-401.67 -140.65)"/><path class="cls-7" d="M638.25,367.49c25.74,25.74,6.38,20.65-32.07,20.65-7.31-7.31-25.79-24.89-25.79-24.89l-30.13-30.13s-8.73-8.66-25.17-25.1c-15.59-15.59,10.19-43.43,31.21-22.42C578.92,308.23,621.23,350.47,638.25,367.49Z" transform="translate(-401.67 -140.65)"/></svg>