<svg xmlns="http://www.w3.org/2000/svg" viewBox="0 0 248.29 247.89"><defs><style>.cls-1{fill:#2d9f6c;}.cls-2{fill:#8bb44a;}.cls-3{fill:#16a4b8;}.cls-4{fill:#05abdb;}.cls-5{fill:none;stroke:#f40d00;stroke-miterlimit:10;}.cls-6{fill:#0a618e;}.cls-7{fill:#04acdb;}</style></defs><title>Asset 1</title><g id="Layer_2" data-name="Layer 2"><g id="Layer_1-2" data-name="Layer 1"><path class="cls-1" d="M52,156.36,17.42,183.12A122.87,122.87,0,0,1,4.73,86.29c.61-2.13,1.27-4.23,2-6.3,20.14-2,32.33,9.67,39.57,20.91A81.61,81.61,0,0,0,52,156.36Z"/><path class="cls-2" d="M124,.2c-16.65,6.64-38,21-40.13,51.32A77.6,77.6,0,0,0,47.37,97.06c-.39,1.27-.74,2.54-1.07,3.84C39.06,89.66,26.87,78,6.73,80,22.87,33.38,66.33,0,117.42,0,119.64,0,121.85.06,124,.2Z"/><path class="cls-1" d="M206.46,41.83c-12.55,7.62-34.17,11.68-51.91,10.3h0a72.09,72.09,0,0,0-70.63-.61C86.07,21.22,107.39,6.84,124,.2A116.18,116.18,0,0,1,206.46,41.83Z"/><path class="cls-3" d="M219.7,61.08c-7.54,14.18-21.73,28.35-27.59,44.47a80.37,80.37,0,0,0-2.23-8.93,77.64,77.64,0,0,0-35.33-44.49c17.74,1.38,39.36-2.68,51.91-10.3A120.78,120.78,0,0,1,219.7,61.08Z"/><path class="cls-4" d="M234.84,120.13a123.69,123.69,0,0,1-1.6,19.86,120.67,120.67,0,0,1-16.4,44.08l-30.29-30.29a80.75,80.75,0,0,0,7-33,82,82,0,0,0-1.42-15.23c5.86-16.12,20-30.29,27.59-44.47A121.74,121.74,0,0,1,234.84,120.13Z"/><line class="cls-5" x1="86.61" y1="235.63" x2="86.61" y2="235.63"/><line class="cls-5" x1="119.61" y1="240.63" x2="119.61" y2="240.63"/><path class="cls-6" d="M67.26,228.78a122.38,122.38,0,0,0,19.27,7.35h0a117.75,117.75,0,0,0,30.87,4.13,7.37,7.37,0,0,0,1.69-.13h0a112.13,112.13,0,0,0,43.19-9l-33-33a72.07,72.07,0,0,1-10.65.79,73.24,73.24,0,0,1-55.25-25.45L28.83,199s-27.35,16.75-11.41,38.3c21.74,18.26,36.19.69,38.38-3.87,3.05-6.34,11.46-4.64,11.46-4.64"/><path class="cls-7" d="M236.58,226.84c25.74,25.74,6.38,20.64-32.07,20.64-7.31-7.31-25.79-24.88-25.79-24.88l-30.13-30.13s-8.73-8.67-25.17-25.11c-15.59-15.58,10.19-43.43,31.21-22.41C177.25,167.57,219.56,209.82,236.58,226.84Z"/></g></g></svg>