<svg id="Layer_1" data-name="Layer 1" xmlns="http://www.w3.org/2000/svg" viewBox="0 0 816.58 263.42"><defs><style>.cls-1{fill:#fff;}.cls-2{fill:#8bb44a;}.cls-3{fill:#2d9f6c;}.cls-4{fill:#16a4b8;}.cls-5{fill:#05abdb;}.cls-6{fill:#0a618e;}.cls-7{fill:#04acdb;}</style></defs><title>Logo_Full</title><path class="cls-1" d="M741.27,318.18a34.54,34.54,0,0,0,3.49-1.62c4.52-2.75,9.5-5,13.41-8.45,15.6-13.79,20.94-31.65,18.59-51.85-2.33-19.94-12.72-34.87-31.37-42.36-35.78-14.38-72.26,8.12-76.07,44.17-3.15,29.72,15.1,55.88,44.4,61.79,1.4.28,2.77.7,4,1-1.73,7-3.33,13.58-4.94,20.12l1,.61a53.78,53.78,0,0,1,6.15-2.9c4.07-1.35,8.19-3.14,12.38-3.4s8.52,1.16,12.81,1.72c13.26,1.73,26.16-5.8,31.66-18.67l-13.06-5.08c-3.75,2.57-6.93,5.36-10.6,7.12C748.16,322.78,744.34,321.83,741.27,318.18Zm277.35,5.75c3.21-.7,8.95-1.24,14.16-3.21,16.29-6.15,26.51-17.71,28.09-35.44,1.52-17-5.45-30.41-20.08-39-15-8.81-30.89-8.75-46.4-1.12-22.52,11.1-30.12,38-16.61,59C986.63,318,1000.37,323.11,1018.62,323.93ZM791.27,243.66a13.63,13.63,0,0,0-.48,2.14c.08,16.33,0,32.67.37,49a27.91,27.91,0,0,0,11.47,22.36c7.44,5.62,16.06,7.14,25.08,6.51,18.86-1.31,32-14.39,31.52-33.06-.4-14.49,0-29,0-43.49,0-1.12-.21-2.25-.33-3.53H843.28c0,2.5,0,4.49,0,6.47,0,14.66,0,29.32-.13,44a14.66,14.66,0,0,1-6.42,12.39c-6.59,4.66-13.94,4.66-21,1.73-6.49-2.7-9-8.56-9-15.45q0-22.24,0-44.49c0-1.44-.13-2.89-.22-4.55Zm338.22,0c0,2.06,0,3.71,0,5.35q.12,21.5.23,43c0,5.76-1.42,11-6.43,14.45-7,4.76-14.62,4.58-21.9,1.22-6.68-3.08-9.28-9.14-9.27-16.41,0-14-.06-28-.1-42,0-1.78,0-3.55,0-5.57h-14.88a6.11,6.11,0,0,0-.56,1.65c.18,16.66.14,33.32.71,50a26.31,26.31,0,0,0,9.35,19.75c11.45,9.75,24.45,10.55,38.06,6.27,12.58-4,20-13.39,20.3-26.15.35-16.81,0-33.64,0-50.46,0-.28-.3-.56-.58-1.07Zm85.16,3.08a14.68,14.68,0,0,0-1.83-1.68c-8.84-5.4-28.83-7.41-39.66.34-7.26,5.19-11,11.9-10.06,20.89.87,8.29,5.71,13.6,13.12,16.81,2.59,1.13,5.26,2.08,7.9,3.09,4.19,1.61,8.51,3,12.56,4.88,5.37,2.56,7.33,6.45,6.26,11.17-1,4.5-4.9,7.33-10.43,7.62a35.16,35.16,0,0,1-20.42-5.52c-1.67-1-3.33-2-5.49-3.35-2,4-3.8,7.47-5.57,10.95a30.72,30.72,0,0,0,2.64,3c10.21,8.66,29.7,10.88,41.67,4.7,8.65-4.47,13-11.55,12.9-21.38-.12-9.66-5.24-15.94-13.66-19.66-5.17-2.28-10.65-3.82-15.92-5.87a32.34,32.34,0,0,1-7.12-3.52c-5.6-4-5-10.45,1.17-13.56,4.88-2.47,10.07-2.23,15.15-1.14,4.15.88,8.14,2.45,12.59,3.84C1211.89,254.37,1213.28,250.52,1214.65,246.74ZM925.6,243.05c-4.54-2.76-9-3-13.46-2.49-8.59,1-13.12,7.44-18.41,13.49.17-3.37.35-6.74.54-10.51H878.53v78.29H894c0-2.33,0-4.13,0-5.93q.18-18,.37-35.93c0-6.1,1.29-11.85,4.67-17.06,3.84-6,9.29-8.27,16.19-7.48,1.61.19,3.21.49,5,.77C922,251.71,923.73,247.59,925.6,243.05Zm11.32.53v78H952v-78ZM720.15,397.78c3.17-3.51,6.15-5.73,7.58-8.7a20.42,20.42,0,0,0,2-10.46,19.81,19.81,0,0,0-4-9.41c-4.94-6.51-14.54-8.33-21.64-4.67a17.7,17.7,0,0,0-9.29,20.13c2.22,8.58,9.42,13.4,19.6,13.13,8.67,7.87,12,8.25,14.7,1.6Zm119.07-34.29c-4.76,11.2-9.36,22-14.19,33.35h5.49l3.15-7.93h16l3,7.81h5.28c-4.85-11.31-9.48-22.08-14.16-33Zm-102.46,0c0,8-.28,15.31.08,22.59.33,6.87,6.17,11.65,13.21,11.49,7.63-.18,13-4.87,13.24-12.07.22-6.8,0-13.62-.12-20.42a5.81,5.81,0,0,0-.66-1.6l-4.09.56c0,2.77,0,5.24,0,7.7,0,4.32.33,8.65.08,13-.34,5.89-3.32,8.3-9.12,7.95-5.23-.32-7.85-2.83-8-8.21-.16-6.78,0-13.57,0-20.62Zm163.38,22.87c4.13-.61,7.82-.71,11.22-1.77a10.57,10.57,0,0,0,7.5-10.6c-.33-5.17-3.58-9.45-8.74-10-4.84-.58-9.81-.13-14.75-.13v33.23l4.77-.3Zm-90.3,6.13H792c3.65-5.25,6.8-9.69,9.85-14.19s6.1-9.24,9.56-14.5H785.11c.25,1.5.41,2.52.67,4.08h17.29c-6.05,10.36-13.53,18.71-19.15,28.67h25.92Zm54.35-28.69V397.1l4.73-.57V385.89c3.41-.33,6.55-.45,9.63-1,5.49-.93,9.07-5.09,9.14-10.27.07-5.49-3.49-10.07-9.18-10.71C873.94,363.42,869.27,363.83,864.19,363.83ZM954.08,214.9c0-5.08-4.83-9.86-9.88-9.78-5.53.1-10.11,4.41-10.09,9.53a10.22,10.22,0,0,0,9.87,9.81C949.21,224.47,954.08,219.87,954.08,214.9ZM777.36,396.82v-33.4l-4.29.7v32.7Z" transform="translate(-401.67 -140.65)"/><path class="cls-1" d="M741.27,318.18c3.07,3.65,6.89,4.6,11.84,2.22,3.67-1.76,6.85-4.55,10.6-7.12l13.06,5.08c-5.5,12.87-18.4,20.4-31.66,18.67-4.29-.56-8.6-2-12.81-1.72s-8.31,2.05-12.38,3.4a53.78,53.78,0,0,0-6.15,2.9l-1-.61c1.61-6.54,3.21-13.08,4.94-20.12-1.23-.32-2.6-.74-4-1-29.3-5.91-47.55-32.07-44.4-61.79,3.81-36,40.29-58.55,76.07-44.17,18.65,7.49,29,22.42,31.37,42.36,2.35,20.2-3,38.06-18.59,51.85-3.91,3.45-8.89,5.7-13.41,8.45A34.54,34.54,0,0,1,741.27,318.18Zm-2.38-17.68c14.13-2.62,27.57-24.54,20.8-48.83-5.82-20.9-27.33-31.58-48.45-24.73-20.94,6.79-31.37,29.85-23.83,52.65,5.15,15.58,23,28,34.51,24l-1.87-8,13.69-3.25Z" transform="translate(-401.67 -140.65)"/><path class="cls-1" d="M1018.62,323.93c-18.25-.82-32-5.95-40.84-19.75-13.51-21-5.91-47.92,16.61-59,15.51-7.63,31.39-7.69,46.4,1.12,14.63,8.59,21.6,22,20.08,39-1.58,17.73-11.8,29.29-28.09,35.44C1027.57,322.69,1021.83,323.23,1018.62,323.93Zm-2.88-14c13.46.06,24.44-7,28.28-18.18,7.06-20.5-8.38-39.54-30.37-37.44-13.31,1.27-23.39,9-26.4,20.21C982.25,293.11,995.69,309.82,1015.74,309.9Z" transform="translate(-401.67 -140.65)"/><path class="cls-1" d="M791.27,243.66h15.29c.09,1.66.22,3.11.22,4.55q0,22.25,0,44.49c0,6.89,2.47,12.75,9,15.45,7,2.93,14.38,2.93,21-1.73A14.66,14.66,0,0,0,843.15,294c.1-14.66.1-29.32.13-44,0-2,0-4,0-6.47h15.65c.12,1.28.33,2.41.33,3.53,0,14.5-.43,29,0,43.49.52,18.67-12.66,31.75-31.52,33.06-9,.63-17.64-.89-25.08-6.51a27.91,27.91,0,0,1-11.47-22.36c-.41-16.32-.29-32.66-.37-49A13.63,13.63,0,0,1,791.27,243.66Z" transform="translate(-401.67 -140.65)"/><path class="cls-1" d="M1129.49,243.66h14.88c.28.51.58.79.58,1.07.06,16.82.4,33.65,0,50.46-.27,12.76-7.72,22.19-20.3,26.15-13.61,4.28-26.61,3.48-38.06-6.27a26.31,26.31,0,0,1-9.35-19.75c-.57-16.65-.53-33.31-.71-50a6.11,6.11,0,0,1,.56-1.65H1092c0,2,0,3.79,0,5.57,0,14,.11,28,.1,42,0,7.27,2.59,13.33,9.27,16.41,7.28,3.36,14.93,3.54,21.9-1.22,5-3.41,6.45-8.69,6.43-14.45q-.08-21.48-.23-43C1129.48,247.37,1129.49,245.72,1129.49,243.66Z" transform="translate(-401.67 -140.65)"/><path class="cls-1" d="M1214.65,246.74c-1.37,3.78-2.76,7.63-4.2,11.59-4.45-1.39-8.44-3-12.59-3.84-5.08-1.09-10.27-1.33-15.15,1.14-6.14,3.11-6.77,9.57-1.17,13.56a32.34,32.34,0,0,0,7.12,3.52c5.27,2.05,10.75,3.59,15.92,5.87,8.42,3.72,13.54,10,13.66,19.66.13,9.83-4.25,16.91-12.9,21.38-12,6.18-31.46,4-41.67-4.7a30.72,30.72,0,0,1-2.64-3c1.77-3.48,3.54-7,5.57-10.95,2.16,1.32,3.82,2.35,5.49,3.35a35.16,35.16,0,0,0,20.42,5.52c5.53-.29,9.41-3.12,10.43-7.62,1.07-4.72-.89-8.61-6.26-11.17-4-1.92-8.37-3.27-12.56-4.88-2.64-1-5.31-2-7.9-3.09-7.41-3.21-12.25-8.52-13.12-16.81-.94-9,2.8-15.7,10.06-20.89,10.83-7.75,30.82-5.74,39.66-.34A14.68,14.68,0,0,1,1214.65,246.74Z" transform="translate(-401.67 -140.65)"/><path class="cls-1" d="M925.6,243.05c-1.87,4.54-3.56,8.66-5.4,13.15-1.79-.28-3.39-.58-5-.77-6.9-.79-12.35,1.53-16.19,7.48-3.38,5.21-4.62,11-4.67,17.06q-.17,18-.37,35.93c0,1.8,0,3.6,0,5.93H878.53V243.54h15.74c-.19,3.77-.37,7.14-.54,10.51,5.29-6.05,9.82-12.53,18.41-13.49C916.63,240.06,921.06,240.29,925.6,243.05Z" transform="translate(-401.67 -140.65)"/><path class="cls-1" d="M936.92,243.58H952v78H936.92Z" transform="translate(-401.67 -140.65)"/><path class="cls-1" d="M720.15,397.78l8.9,1.62c-2.72,6.65-6,6.27-14.7-1.6-10.18.27-17.38-4.55-19.6-13.13A17.7,17.7,0,0,1,704,364.54c7.1-3.66,16.7-1.84,21.64,4.67a19.81,19.81,0,0,1,4,9.41,20.42,20.42,0,0,1-2,10.46C726.3,392.05,723.32,394.27,720.15,397.78Zm-2.47-5.73c6.26-2.52,8.85-8.64,6.83-15.66a12.88,12.88,0,0,0-14.2-9.13c-6.82,1.07-11.2,6.91-11.22,14.28,0,5.81,5.93,11.73,12.4,11.2l2.11-2.3Z" transform="translate(-401.67 -140.65)"/><path class="cls-1" d="M839.22,363.49l4.47.25c4.68,10.9,9.31,21.67,14.16,33h-5.28l-3-7.81h-16l-3.15,7.93H825C829.86,385.49,834.46,374.69,839.22,363.49Zm-3.77,20.45h12.29c-2.16-4.91-4-9.13-6.28-14.28Z" transform="translate(-401.67 -140.65)"/><path class="cls-1" d="M736.76,363.52l4.6.32c0,7.05-.12,13.84,0,20.62.14,5.38,2.76,7.89,8,8.21,5.8.35,8.78-2.06,9.12-7.95.25-4.3,0-8.63-.08-13,0-2.46,0-4.93,0-7.7l4.09-.56a5.81,5.81,0,0,1,.66,1.6c.08,6.8.34,13.62.12,20.42-.23,7.2-5.61,11.89-13.24,12.07-7,.16-12.88-4.62-13.21-11.49C736.48,378.83,736.76,371.52,736.76,363.52Z" transform="translate(-401.67 -140.65)"/><path class="cls-1" d="M900.14,386.39v10.38l-4.77.3V363.84c4.94,0,9.91-.45,14.75.13,5.16.6,8.41,4.88,8.74,10a10.57,10.57,0,0,1-7.5,10.6C908,385.68,904.27,385.78,900.14,386.39Zm0-5.19c5,.45,9.55,1.25,12.65-3.06,1.73-2.41,2-5.48-.06-7.86-3.45-4-8-2.52-12.59-2.38Z" transform="translate(-401.67 -140.65)"/><path class="cls-1" d="M809.84,392.52v4.06H783.92c5.62-10,13.1-18.31,19.15-28.67H785.78c-.26-1.56-.42-2.58-.67-4.08h26.33c-3.46,5.26-6.46,9.92-9.56,14.5s-6.2,8.94-9.85,14.19Z" transform="translate(-401.67 -140.65)"/><path class="cls-1" d="M864.19,363.83c5.08,0,9.75-.41,14.32.11,5.69.64,9.25,5.22,9.18,10.71-.07,5.18-3.65,9.34-9.14,10.27-3.08.52-6.22.64-9.63,1v10.64l-4.73.57Zm4.88,17.74c3.46-.31,6.56-.26,9.48-1,3.22-.77,4.84-3.94,4.44-7.36s-2.48-5-5.56-5.31c-2.71-.26-5.46-.05-8.36-.05Z" transform="translate(-401.67 -140.65)"/><path class="cls-2" d="M954.08,214.9c0,5-4.87,9.57-10.1,9.56a10.22,10.22,0,0,1-9.87-9.81c0-5.12,4.56-9.43,10.09-9.53C949.25,205,954.09,209.82,954.08,214.9Z" transform="translate(-401.67 -140.65)"/><path class="cls-1" d="M777.36,396.82h-4.29v-32.7l4.29-.7Z" transform="translate(-401.67 -140.65)"/><path class="cls-1" d="M738.89,300.5l-5.15-8.19-13.69,3.25,1.87,8c-11.51,4.09-29.36-8.37-34.51-24-7.54-22.8,2.89-45.86,23.83-52.65,21.12-6.85,42.63,3.83,48.45,24.73C766.46,276,753,297.88,738.89,300.5Z" transform="translate(-401.67 -140.65)"/><path class="cls-1" d="M1015.74,309.9c-20-.08-33.49-16.79-28.49-35.41,3-11.22,13.09-18.94,26.4-20.21,22-2.1,37.43,16.94,30.37,37.44C1040.18,302.9,1029.2,310,1015.74,309.9Z" transform="translate(-401.67 -140.65)"/><path class="cls-1" d="M717.68,392.05l-4.08-1.61-2.11,2.3c-6.47.53-12.42-5.39-12.4-11.2,0-7.37,4.4-13.21,11.22-14.28a12.88,12.88,0,0,1,14.2,9.13C726.53,383.41,723.94,389.53,717.68,392.05Z" transform="translate(-401.67 -140.65)"/><path class="cls-1" d="M835.45,383.94l6-14.28c2.26,5.15,4.12,9.37,6.28,14.28Z" transform="translate(-401.67 -140.65)"/><path class="cls-1" d="M900.14,381.2V367.9c4.59-.14,9.14-1.64,12.59,2.38,2,2.38,1.79,5.45.06,7.86C909.69,382.45,905.11,381.65,900.14,381.2Z" transform="translate(-401.67 -140.65)"/><path class="cls-1" d="M869.07,381.57V367.89c2.9,0,5.65-.21,8.36.05,3.08.3,5.18,2,5.56,5.31s-1.22,6.59-4.44,7.36C875.63,381.31,872.53,381.26,869.07,381.57Z" transform="translate(-401.67 -140.65)"/><path class="cls-3" d="M453.7,297l-34.61,26.76a122.87,122.87,0,0,1-12.69-96.83c.61-2.13,1.27-4.23,2-6.3,20.14-2,32.33,9.67,39.57,20.91A81.61,81.61,0,0,0,453.7,297Z" transform="translate(-401.67 -140.65)"/><path class="cls-2" d="M525.71,140.85c-16.65,6.64-38,21-40.13,51.32A77.6,77.6,0,0,0,449,237.71c-.39,1.27-.74,2.54-1.07,3.84-7.24-11.24-19.43-22.93-39.57-20.91,16.14-46.61,59.6-80,110.69-80C521.31,140.65,523.52,140.71,525.71,140.85Z" transform="translate(-401.67 -140.65)"/><path class="cls-3" d="M608.13,182.48c-12.55,7.62-34.17,11.68-51.91,10.3h0a72.09,72.09,0,0,0-70.63-.61c2.16-30.3,23.48-44.68,40.13-51.32A116.18,116.18,0,0,1,608.13,182.48Z" transform="translate(-401.67 -140.65)"/><path class="cls-4" d="M621.37,201.73c-7.54,14.18-21.73,28.35-27.59,44.47a80.37,80.37,0,0,0-2.23-8.93,77.64,77.64,0,0,0-35.33-44.49c17.74,1.38,39.36-2.68,51.91-10.3A120.78,120.78,0,0,1,621.37,201.73Z" transform="translate(-401.67 -140.65)"/><path class="cls-5" d="M636.51,260.78a123.69,123.69,0,0,1-1.6,19.86,120.67,120.67,0,0,1-16.4,44.08l-30.29-30.29a80.75,80.75,0,0,0,7-33,82,82,0,0,0-1.42-15.23c5.86-16.12,20.05-30.29,27.59-44.47A121.74,121.74,0,0,1,636.51,260.78Z" transform="translate(-401.67 -140.65)"/><path class="cls-6" d="M468.93,369.43a122.38,122.38,0,0,0,19.27,7.35h0a117.75,117.75,0,0,0,30.87,4.13,7.37,7.37,0,0,0,1.69-.13h0a112.13,112.13,0,0,0,43.19-9l-33-33a72.07,72.07,0,0,1-10.65.79,73.24,73.24,0,0,1-55.25-25.45L430.5,339.64s-27.35,16.76-11.41,38.3c21.74,18.26,36.19.69,38.38-3.87,3-6.34,11.45-4.64,11.45-4.64" transform="translate(-401.67 -140.65)"/><path class="cls-7" d="M638.25,367.49c25.74,25.74,6.38,20.65-32.07,20.65-7.31-7.31-25.79-24.89-25.79-24.89l-30.13-30.13s-8.73-8.66-25.17-25.1c-15.59-15.59,10.19-43.43,31.21-22.42C578.92,308.23,621.23,350.47,638.25,367.49Z" transform="translate(-401.67 -140.65)"/></svg>